<?xml version="1.0" encoding="UTF-8"?>
<svg version="1.1" xmlns="http://www.w3.org/2000/svg" width="180" height="180">
<path d="M0 0 C59.4 0 118.8 0 180 0 C180 59.4 180 118.8 180 180 C120.6 180 61.2 180 0 180 C0 120.6 0 61.2 0 0 Z " fill="#FDFDFD" transform="translate(0,0)"/>
<path d="M0 0 C3.43986089 1.66864461 6.78690837 3.50140041 10.14355469 5.33007812 C14.96848045 7.86207278 19.96853311 10.05637719 24.93945312 12.28491211 C32.25263559 15.66484309 37.04461309 18.90386331 40.41015625 26.51953125 C40.99466026 28.64406471 41.50407207 30.7903778 41.9453125 32.94921875 C42.32333008 34.76099609 42.32333008 34.76099609 42.70898438 36.609375 C43.08700195 38.48302734 43.08700195 38.48302734 43.47265625 40.39453125 C43.98319219 42.87133785 44.49488107 45.34790713 45.0078125 47.82421875 C45.36637329 49.56807861 45.36637329 49.56807861 45.73217773 51.34716797 C46.29179537 53.96570294 46.90136809 56.55350025 47.57421875 59.14453125 C49.22453017 65.80747081 48.86239821 70.45149361 45.41015625 76.51953125 C43.90255868 78.47967587 42.33592888 80.39539978 40.72265625 82.26953125 C39.82470977 83.32352831 38.92758521 84.37822611 38.03125 85.43359375 C37.36585205 86.21331543 37.36585205 86.21331543 36.68701172 87.00878906 C34.84507939 89.18811549 33.06288854 91.41268516 31.28515625 93.64453125 C30.64578125 94.44246094 30.00640625 95.24039063 29.34765625 96.0625 C27.99434061 97.77870068 26.66259428 99.51203303 25.34765625 101.2578125 C24.66703125 102.14855469 23.98640625 103.03929687 23.28515625 103.95703125 C22.68445313 104.76011719 22.08375 105.56320313 21.46484375 106.390625 C16.85124503 111.17087463 12.1258125 111.88032278 5.76968384 112.01332092 C4.31167862 112.01832863 4.31167862 112.01832863 2.82421875 112.0234375 C1.80846771 112.0334227 0.79271667 112.0434079 -0.2538147 112.05369568 C-2.3970331 112.06884497 -4.54032186 112.07592246 -6.68359375 112.07543945 C-9.94781031 112.08199703 -13.20897777 112.13650344 -16.47265625 112.19335938 C-18.56118758 112.20216333 -20.64973327 112.20811628 -22.73828125 112.2109375 C-23.70623627 112.23249405 -24.67419128 112.2540506 -25.67147827 112.27626038 C-32.64952869 112.20632956 -36.56059757 110.33244457 -41.58984375 105.51953125 C-43.515625 103.45703125 -43.515625 103.45703125 -44.90234375 101.51953125 C-45.464375 100.75769531 -46.02640625 99.99585938 -46.60546875 99.2109375 C-47.2603125 98.32277344 -47.91515625 97.43460937 -48.58984375 96.51953125 C-50.42953911 94.15390771 -52.29247922 91.80680979 -54.15234375 89.45703125 C-55.55252173 87.67453348 -56.95047073 85.89031269 -58.34765625 84.10546875 C-59.41577572 82.74176904 -60.48689435 81.38041938 -61.55859375 80.01953125 C-62.08453125 79.33890625 -62.61046875 78.65828125 -63.15234375 77.95703125 C-63.58675781 77.39886719 -64.02117187 76.84070313 -64.46875 76.265625 C-68.47269757 70.02951154 -67.68783905 64.58145788 -66.58984375 57.51953125 C-65.72018109 53.57101546 -64.73887522 49.67085415 -63.6953125 45.765625 C-62.91380127 42.83341679 -62.21750403 39.89613067 -61.578125 36.9296875 C-61.41223877 36.17196045 -61.24635254 35.4142334 -61.07543945 34.63354492 C-60.76104617 33.18392161 -60.45559778 31.73231733 -60.16088867 30.27856445 C-58.7662453 23.97251688 -56.4969545 19.55293506 -51.0546875 15.9921875 C-45.90800262 13.01089793 -40.53237641 10.48406939 -35.15234375 7.95703125 C-34.16685547 7.48845703 -33.18136719 7.01988281 -32.16601562 6.53710938 C-29.31301019 5.18528771 -26.45295063 3.84980213 -23.58984375 2.51953125 C-22.7486499 2.12233887 -21.90745605 1.72514648 -21.04077148 1.31591797 C-13.5291793 -2.15551904 -7.93301883 -3.27161495 0 0 Z " fill="#C9132F" transform="translate(99.58984375,35.48046875)"/>
<path d="M0 0 C0.97779419 0.43662964 0.97779419 0.43662964 1.9753418 0.88208008 C2.54422119 1.17493896 3.11310059 1.46779785 3.69921875 1.76953125 C4.35212891 2.10146484 5.00503906 2.43339844 5.67773438 2.77539062 C6.67256836 3.28875977 6.67256836 3.28875977 7.6875 3.8125 C9.00276411 4.48790589 10.3191989 5.16103629 11.63671875 5.83203125 C12.31935791 6.19369385 13.00199707 6.55535645 13.70532227 6.92797852 C16.04121991 8.08623259 16.04121991 8.08623259 18.82397461 8.85131836 C22.02587999 9.91737673 24.33605401 10.91289799 27 13 C29.36155282 17.79877472 30.26419043 22.72261313 31.1875 27.9375 C31.47038935 29.31012128 31.75746774 30.68188621 32.04882812 32.05273438 C34.34157016 43.20747377 34.34157016 43.20747377 34 49 C32.6015625 51.09765625 32.6015625 51.09765625 30.625 53.0625 C27.04370786 56.8161538 23.81990196 60.68637452 20.6875 64.8125 C20.26742676 65.36365479 19.84735352 65.91480957 19.41455078 66.48266602 C16.95747162 69.68880653 16.95747162 69.68880653 14.84667969 73.125 C12.06652212 75.94779351 9.01720679 75.77914663 5.25390625 75.91796875 C4.49068054 75.95386612 3.72745483 75.98976349 2.94110107 76.02674866 C0.48077215 76.11850316 -1.9756187 76.16246097 -4.4375 76.1875 C-5.26601471 76.19769165 -6.09452942 76.2078833 -6.94815063 76.21838379 C-22.59722431 76.251262 -22.59722431 76.251262 -27.734375 72.06640625 C-30.43388153 69.03143414 -32.25969679 65.64712516 -33.96728516 61.97900391 C-35.02473031 59.95260901 -36.17980064 58.49454217 -37.73046875 56.82421875 C-41.18008449 53.05868546 -43.81235682 50.07971194 -44.28125 44.8828125 C-43.91033541 41.85129904 -43.25360416 39.04855541 -42.44189453 36.109375 C-41.93716157 33.70004197 -41.87091685 31.42843487 -41.80859375 28.96875 C-41.39994927 22.97602504 -40.65639066 17.91527131 -37 13 C-32.41351206 9.13857903 -26.96478226 6.57506318 -21.5625 4.0625 C-20.50175766 3.56546066 -20.50175766 3.56546066 -19.41958618 3.05838013 C-17.35763527 2.11639576 -15.2834559 1.22054876 -13.19140625 0.34765625 C-12.24433807 -0.05990906 -12.24433807 -0.05990906 -11.27813721 -0.47570801 C-6.81199359 -2.20212647 -4.31904559 -1.95217525 0 0 Z " fill="#F9F9FA" transform="translate(95,54)"/>
<path d="M0 0 C0.33 0 0.66 0 1 0 C1 1.65 1 3.3 1 5 C1.99 5.33 2.98 5.66 4 6 C4 7.32 4 8.64 4 10 C3.34 10 2.68 10 2 10 C2 11.98 2 13.96 2 16 C3.11375 16.474375 4.2275 16.94875 5.375 17.4375 C7.26710994 18.25306463 9.15712709 19.07856355 11 20 C10.55637066 27.49580602 9.31761088 34.54402185 7.5234375 41.8359375 C6.98128854 45.11310661 6.8909358 46.88762615 8 50 C9.97784346 52.78940242 9.97784346 52.78940242 12.5 55.5625 C13.3146875 56.49191406 14.129375 57.42132813 14.96875 58.37890625 C15.4438501 58.90403809 15.9189502 59.42916992 16.40844727 59.97021484 C18 62 18 62 19.69897461 65.03369141 C23.20730668 71.05256847 23.20730668 71.05256847 28.94293213 74.66677856 C34.45130676 75.66972775 39.99164213 75.43368451 45.5625 75.25 C47.25582943 75.23800781 48.94920652 75.23144956 50.64257812 75.23046875 C54.76493515 75.21635382 58.87968788 75.12853109 63 75 C63.29438965 74.38415039 63.5887793 73.76830078 63.89208984 73.13378906 C65.17951661 70.65425845 66.75824624 68.82417084 68.625 66.75 C69.57246094 65.69039062 69.57246094 65.69039062 70.5390625 64.609375 C71.02117187 64.07828125 71.50328125 63.5471875 72 63 C72.495 64.485 72.495 64.485 73 66 C73.78375 65.938125 74.5675 65.87625 75.375 65.8125 C76.674375 65.9053125 76.674375 65.9053125 78 66 C78.99 67.485 78.99 67.485 80 69 C81.95385067 69.78988145 81.95385067 69.78988145 84.125 70.1875 C85.40375 70.455625 86.6825 70.72375 88 71 C86.22169078 75.11169763 83.53315886 78.48044672 80.8125 82 C80.35552734 82.61617188 79.89855469 83.23234375 79.42773438 83.8671875 C78.96302734 84.46789062 78.49832031 85.06859375 78.01953125 85.6875 C77.60807861 86.22761719 77.19662598 86.76773438 76.77270508 87.32421875 C70.72226036 93.04385138 65.33139138 93.61667338 57.31640625 93.6015625 C55.79490211 93.61441788 55.79490211 93.61441788 54.24266052 93.62753296 C52.10540746 93.63897789 49.96807653 93.6400508 47.83081055 93.63134766 C44.57529878 93.62502486 41.3234226 93.67199187 38.06835938 93.72265625 C35.98437955 93.72720282 33.90039003 93.72860896 31.81640625 93.7265625 C30.85158829 93.74498199 29.88677032 93.76340149 28.89271545 93.78237915 C21.93311319 93.687912 18.01929152 91.79559352 13 87 C11.07421875 84.9375 11.07421875 84.9375 9.6875 83 C9.12546875 82.23816406 8.5634375 81.47632813 7.984375 80.69140625 C7.32953125 79.80324219 6.6746875 78.91507812 6 78 C4.16030464 75.63437646 2.29736453 73.28727854 0.4375 70.9375 C-0.96267798 69.15500223 -2.36062698 67.37078144 -3.7578125 65.5859375 C-4.82593197 64.22223779 -5.8970506 62.86088813 -6.96875 61.5 C-7.4946875 60.819375 -8.020625 60.13875 -8.5625 59.4375 C-8.99691406 58.87933594 -9.43132813 58.32117188 -9.87890625 57.74609375 C-13.88285382 51.50998029 -13.0979953 46.06192663 -12 39 C-11.13033734 35.05148421 -10.14903147 31.1513229 -9.10546875 27.24609375 C-8.32395752 24.31388554 -7.62766028 21.37659942 -6.98828125 18.41015625 C-6.82239502 17.6524292 -6.65650879 16.89470215 -6.4855957 16.11401367 C-6.17120242 14.66439036 -5.86575403 13.21278608 -5.57104492 11.7590332 C-4.5140108 6.97952644 -2.94657967 3.81391965 0 0 Z " fill="#0443F8" transform="translate(45,54)"/>
<path d="M0 0 C0.495 1.485 0.495 1.485 1 3 C2.175625 2.9071875 2.175625 2.9071875 3.375 2.8125 C4.674375 2.9053125 4.674375 2.9053125 6 3 C6.99 4.485 6.99 4.485 8 6 C9.95385067 6.78988145 9.95385067 6.78988145 12.125 7.1875 C13.40375 7.455625 14.6825 7.72375 16 8 C14.22169078 12.11169763 11.53315886 15.48044672 8.8125 19 C8.12704102 19.92425781 8.12704102 19.92425781 7.42773438 20.8671875 C6.96302734 21.46789062 6.49832031 22.06859375 6.01953125 22.6875 C5.60807861 23.22761719 5.19662598 23.76773438 4.77270508 24.32421875 C-1.27773964 30.04385138 -6.66860862 30.61667338 -14.68359375 30.6015625 C-16.20509789 30.61441788 -16.20509789 30.61441788 -17.75733948 30.62753296 C-19.89459254 30.63897789 -22.03192347 30.6400508 -24.16918945 30.63134766 C-27.42470122 30.62502486 -30.6765774 30.67199187 -33.93164062 30.72265625 C-36.01562045 30.72720282 -38.09960997 30.72860896 -40.18359375 30.7265625 C-41.14841171 30.74498199 -42.11322968 30.76340149 -43.10728455 30.78237915 C-50.05841867 30.68802694 -54.00216177 28.81263044 -59 24 C-61.3125 21.4453125 -61.3125 21.4453125 -63 19.125 C-63.5775 18.34382813 -64.155 17.56265625 -64.75 16.7578125 C-65.1625 16.17773438 -65.575 15.59765625 -66 15 C-62.61976483 15 -60.16531063 15.87455622 -57 17 C-57.66 17.33 -58.32 17.66 -59 18 C-57.19823359 22.05397442 -55.94989919 24.85987713 -52 27 C-49.02471138 27.25703045 -46.26663022 27.3496991 -43.296875 27.29296875 C-42.45908508 27.28872391 -41.62129517 27.28447906 -40.75811768 27.28010559 C-38.08841498 27.26334408 -35.41947363 27.22569711 -32.75 27.1875 C-30.93751092 27.17244987 -29.12500998 27.15876203 -27.3125 27.14648438 C-22.87470769 27.11344889 -18.43748283 27.06168443 -14 27 C-14.47730838 25.5410574 -14.95691042 24.08286504 -15.4375 22.625 C-15.70433594 21.81289062 -15.97117188 21.00078125 -16.24609375 20.1640625 C-16.95179729 17.98968201 -16.95179729 17.98968201 -18 16 C-18.99 16.33 -19.98 16.66 -21 17 C-23.7191286 16.61113849 -26.3717851 16.15750402 -29.0625 15.625 C-34.78866144 14.53326283 -40.37686785 13.64657834 -46.21484375 13.40625 C-48 13 -48 13 -50 10 C-49.625 7.8125 -49.625 7.8125 -49 6 C-48.51047852 6.81041748 -48.02095703 7.62083496 -47.51660156 8.45581055 C-44.64962152 11.35421945 -43.05924923 11.6098546 -39.05804443 11.71894836 C-37.90782806 11.71304939 -37.90782806 11.71304939 -36.734375 11.70703125 C-35.94097717 11.72215256 -35.14757935 11.73727386 -34.33013916 11.75285339 C-31.80313732 11.79574379 -29.27732961 11.80456905 -26.75 11.8125 C-25.03382239 11.83564347 -23.3176732 11.86100851 -21.6015625 11.88867188 C-17.40093606 11.95153674 -13.20105534 11.98386157 -9 12 C-8.70561035 11.38415039 -8.4112207 10.76830078 -8.10791016 10.13378906 C-6.82048339 7.65425845 -5.24175376 5.82417084 -3.375 3.75 C-2.74335937 3.04359375 -2.11171875 2.3371875 -1.4609375 1.609375 C-0.97882813 1.07828125 -0.49671875 0.5471875 0 0 Z " fill="#1744D6" transform="translate(117,117)"/>
<path d="M0 0 C-0.33 1.98 -0.66 3.96 -1 6 C-3.33869253 6.7517226 -4.61691911 7.11971278 -7 6.375 C-7.66 6.25125 -8.32 6.1275 -9 6 C-11.12094209 7.4343644 -11.12094209 7.4343644 -13 9 C-11.62714844 8.98259766 -11.62714844 8.98259766 -10.2265625 8.96484375 C-8.44378906 8.95130859 -8.44378906 8.95130859 -6.625 8.9375 C-5.44164063 8.92589844 -4.25828125 8.91429687 -3.0390625 8.90234375 C0 9 0 9 2 10 C3.125 12.0625 3.125 12.0625 4 14 C4.60585937 13.88140625 5.21171875 13.7628125 5.8359375 13.640625 C13.00168567 12.5382022 17.5496151 13.9320018 24 17 C25.6626273 17.67667768 27.32828076 18.34610628 29 19 C29 19.66 29 20.32 29 21 C31.31 21.33 33.62 21.66 36 22 C36.495 23.485 36.495 23.485 37 25 C38.98 25.33 40.96 25.66 43 26 C43.495 27.485 43.495 27.485 44 29 C40.37891282 28.39944124 37.39857222 27.40727517 34.09375 25.8203125 C33.18496094 25.38589844 32.27617188 24.95148437 31.33984375 24.50390625 C30.40269531 24.04886719 29.46554688 23.59382813 28.5 23.125 C27.09427734 22.45404297 27.09427734 22.45404297 25.66015625 21.76953125 C18.34417144 18.25163217 18.34417144 18.25163217 15.56835938 16.22216797 C13.01084089 14.68437009 13.01084089 14.68437009 10.06152344 15.63623047 C7.02164194 16.9903595 4.00339115 18.35426277 1.015625 19.8203125 C-0.63373047 20.62275391 -0.63373047 20.62275391 -2.31640625 21.44140625 C-4.62115348 22.57149278 -6.92584018 23.70170276 -9.23046875 24.83203125 C-10.87208984 25.63060547 -10.87208984 25.63060547 -12.546875 26.4453125 C-13.54557617 26.93531738 -14.54427734 27.42532227 -15.57324219 27.93017578 C-18 29 -18 29 -20 29 C-20.33 31.64 -20.66 34.28 -21 37 C-22.485 37.495 -22.485 37.495 -24 38 C-24.66 37.01 -25.32 36.02 -26 35 C-27.2684375 34.566875 -27.2684375 34.566875 -28.5625 34.125 C-29.366875 33.75375 -30.17125 33.3825 -31 33 C-31.875 30.5 -31.875 30.5 -32 28 C-31.67 27.34 -31.34 26.68 -31 26 C-30.34 26 -29.68 26 -29 26 C-29.34786708 24.02463255 -29.34786708 24.02463255 -30 22 C-30.66 21.67 -31.32 21.34 -32 21 C-32 19.02 -32 17.04 -32 15 C-31.00742187 14.50371094 -30.01484375 14.00742187 -28.9921875 13.49609375 C-28.34137207 13.17060547 -27.69055664 12.84511719 -27.02001953 12.50976562 C-25.5811518 11.79049553 -24.14202083 11.0717518 -22.70263672 10.35351562 C-19.09235948 8.55115842 -15.48606974 6.74194624 -11.890625 4.91015625 C-11.25527832 4.58797119 -10.61993164 4.26578613 -9.96533203 3.93383789 C-8.20735534 3.04178949 -6.45128548 2.14598621 -4.6953125 1.25 C-2 0 -2 0 0 0 Z " fill="#BA3365" transform="translate(78,38)"/>
<path d="M0 0 C0.33 0 0.66 0 1 0 C1 1.65 1 3.3 1 5 C1.99 5.33 2.98 5.66 4 6 C4 7.32 4 8.64 4 10 C3.34 10 2.68 10 2 10 C2 11.98 2 13.96 2 16 C3.11375 16.474375 4.2275 16.94875 5.375 17.4375 C7.26710994 18.25306463 9.15712709 19.07856355 11 20 C10.55637066 27.49580602 9.31761088 34.54402185 7.5234375 41.8359375 C6.97839823 45.13057785 6.87379738 46.87441562 8 50 C9.54971338 52.12274036 11.07802341 54.04468161 12.8125 56 C13.69441534 57.02048353 14.57593033 58.0413132 15.45703125 59.0625 C16.29621094 60.031875 17.13539062 61.00125 18 62 C19.34184163 63.65982427 20.67834607 65.32405655 22 67 C21.67 67.66 21.34 68.32 21 69 C16.62334393 65.59463391 13.99333484 63.23250397 12 58 C10.88058877 56.72628397 9.73080263 55.47902522 8.5625 54.25 C3.20789636 48.32883042 1.96797108 41.49859302 0.4296875 33.84765625 C0.05697461 31.91979104 0.05697461 31.91979104 -1 30 C-1.66 30 -2.32 30 -3 30 C-3.33 30.99 -3.66 31.98 -4 33 C-4.99 32.67 -5.98 32.34 -7 32 C-7.12375 32.845625 -7.2475 33.69125 -7.375 34.5625 C-8 38 -8 38 -9.0625 41.4375 C-10.56346584 47.14117018 -10.59138606 51.65526625 -8 57 C-7.01 57 -6.02 57 -5 57 C-4.5978125 58.36125 -4.5978125 58.36125 -4.1875 59.75 C-3.10423706 62.71471963 -2.01640543 64.6169754 0 67 C-0.495 67.99 -0.495 67.99 -1 69 C-2.63236654 66.94297722 -4.25587005 64.87990147 -5.875 62.8125 C-6.33519531 62.23435547 -6.79539062 61.65621094 -7.26953125 61.06054688 C-12.19068757 54.74862899 -13.37393037 50.48897104 -12.54296875 42.4921875 C-11.7380876 37.31546986 -10.45599218 32.30003384 -9.10546875 27.24609375 C-8.32395752 24.31388554 -7.62766028 21.37659942 -6.98828125 18.41015625 C-6.82239502 17.6524292 -6.65650879 16.89470215 -6.4855957 16.11401367 C-6.17120242 14.66439036 -5.86575403 13.21278608 -5.57104492 11.7590332 C-4.5140108 6.97952644 -2.94657967 3.81391965 0 0 Z " fill="#5343B9" transform="translate(45,54)"/>
<path d="M0 0 C1.31636796 0.38277366 2.62786266 0.78229597 3.9375 1.1875 C4.66839844 1.40792969 5.39929688 1.62835938 6.15234375 1.85546875 C10.28016332 3.5145238 14.11109463 5.83949702 18 8 C18 15.26 18 22.52 18 30 C15.215625 28.700625 12.43125 27.40125 9.5625 26.0625 C8.68408447 25.65394775 7.80566895 25.24539551 6.90063477 24.82446289 C5.86894165 24.3409436 5.86894165 24.3409436 4.81640625 23.84765625 C4.10943604 23.51773682 3.40246582 23.18781738 2.67407227 22.84790039 C1 22 1 22 0 21 C-0.08685603 19.43827255 -0.10702219 17.87270656 -0.09765625 16.30859375 C-0.09443359 15.36435547 -0.09121094 14.42011719 -0.08789062 13.44726562 C-0.07951172 12.45404297 -0.07113281 11.46082031 -0.0625 10.4375 C-0.05798828 9.44041016 -0.05347656 8.44332031 -0.04882812 7.41601562 C-0.03700007 4.94395151 -0.02051849 2.47200482 0 0 Z " fill="#6665F8" transform="translate(71,82)"/>
<path d="M0 0 C0 6.93 0 13.86 0 21 C-2.59875 22.32 -5.1975 23.64 -7.875 25 C-8.69210449 25.41765625 -9.50920898 25.8353125 -10.35107422 26.265625 C-11.31811279 26.75289062 -11.31811279 26.75289062 -12.3046875 27.25 C-12.96452637 27.58515625 -13.62436523 27.9203125 -14.30419922 28.265625 C-16 29 -16 29 -18 29 C-18 22.07 -18 15.14 -18 8 C-15.586875 6.68 -13.17375 5.36 -10.6875 4 C-9.55380981 3.37351562 -9.55380981 3.37351562 -8.3972168 2.734375 C-3.33333333 0 -3.33333333 0 0 0 Z " fill="#6665F8" transform="translate(109,82)"/>
<path d="M0 0 C0.66 0 1.32 0 2 0 C2.2475 1.216875 2.495 2.43375 2.75 3.6875 C3.64121688 7.7460632 4.80374101 11.66563083 6.0625 15.625 C7.47884456 20.11623388 8.56424305 24.31561283 9 29 C9.33 29 9.66 29 10 29 C10.75 31.6875 10.75 31.6875 11 35 C10.360625 35.763125 9.72125 36.52625 9.0625 37.3125 C6.45223282 40.71375724 6.69110715 42.66942771 6.95703125 46.81640625 C7.00125807 49.06393284 6.54476942 50.83513368 6 53 C6.33 53.33 6.66 53.66 7 54 C7.78375 53.649375 8.5675 53.29875 9.375 52.9375 C10.24125 52.628125 11.1075 52.31875 12 52 C12.66 52.33 13.32 52.66 14 53 C14 51.68 14 50.36 14 49 C16.375 46.25 16.375 46.25 19 44 C19.66 44 20.32 44 21 44 C21.75363052 40.64908229 22.11979937 37.56890188 22.09765625 34.13671875 C22.09282227 32.80737305 22.09282227 32.80737305 22.08789062 31.45117188 C22.07951172 30.53916016 22.07113281 29.62714844 22.0625 28.6875 C22.05798828 27.75615234 22.05347656 26.82480469 22.04882812 25.86523438 C22.03709234 23.57675627 22.02067363 21.28841192 22 19 C25.39104207 25.44013032 26.58033407 31.80385755 26 39 C24.0167455 43.70057073 21.24539667 47.41726965 17.9375 51.25 C17.49083984 51.77851562 17.04417969 52.30703125 16.58398438 52.8515625 C14.783197 54.97266931 12.96812854 57.03187146 11 59 C9.5164999 58.57742724 8.03823576 58.13643678 6.5625 57.6875 C5.73878906 57.44386719 4.91507813 57.20023438 4.06640625 56.94921875 C3.38449219 56.63597656 2.70257813 56.32273438 2 56 C1.505 54.515 1.505 54.515 1 53 C-0.65 53 -2.3 53 -4 53 C-4.64648438 51.18237305 -4.64648438 51.18237305 -5 49 C-2.76175606 46.2133863 -0.42022092 43.71396342 2.12890625 41.21679688 C4.27765415 38.9169222 5.87586898 37.18548709 6.21118164 33.9831543 C5.98271995 31.59063027 5.53921344 29.34245093 5 27 C4.81099121 26.07340576 4.62198242 25.14681152 4.42724609 24.19213867 C3.79844287 21.18187352 3.12477059 18.18492385 2.4375 15.1875 C1.97398094 13.16104065 1.51418756 11.13372457 1.05859375 9.10546875 C0.75393188 7.77745239 0.75393188 7.77745239 0.44311523 6.42260742 C0 4 0 4 0 0 Z " fill="#B83E67" transform="translate(122,67)"/>
<path d="M0 0 C0.33 0.99 0.66 1.98 1 3 C2.175625 2.9071875 2.175625 2.9071875 3.375 2.8125 C4.674375 2.9053125 4.674375 2.9053125 6 3 C6.99 4.485 6.99 4.485 8 6 C9.95385067 6.78988145 9.95385067 6.78988145 12.125 7.1875 C14.043125 7.5896875 14.043125 7.5896875 16 8 C14.02243194 12.19659671 11.36775694 15.56760526 8.5 19.1875 C8.00113281 19.82880859 7.50226563 20.47011719 6.98828125 21.13085938 C3.25178299 25.8741085 3.25178299 25.8741085 1 27 C0.9175 26.21625 0.835 25.4325 0.75 24.625 C0.5025 23.75875 0.255 22.8925 0 22 C-0.66 21.67 -1.32 21.34 -2 21 C-2.66 20.67 -3.32 20.34 -4 20 C-4.495 17.525 -4.495 17.525 -5 15 C-11.6 14.34 -18.2 13.68 -25 13 C-25 12.67 -25 12.34 -25 12 C-19.72 12 -14.44 12 -9 12 C-8.34 10.68 -7.68 9.36 -7 8 C-5.83102663 6.5506846 -4.62060692 5.13400769 -3.375 3.75 C-2.74335937 3.04359375 -2.11171875 2.3371875 -1.4609375 1.609375 C-0.97882813 1.07828125 -0.49671875 0.5471875 0 0 Z " fill="#6B43A8" transform="translate(117,117)"/>
<path d="M0 0 C1.04414062 0.53367187 2.08828125 1.06734375 3.1640625 1.6171875 C4.22367188 2.15601562 5.28328125 2.69484375 6.375 3.25 C7.17164063 3.65992187 7.96828125 4.06984375 8.7890625 4.4921875 C7.15348937 7.76333377 3.72463262 8.68288949 0.5390625 10.1796875 C-0.12996094 10.51291016 -0.79898438 10.84613281 -1.48828125 11.18945312 C-4.31340628 12.52431083 -6.61625179 13.50853001 -9.76953125 13.421875 C-13.02144395 12.18354664 -15.98196469 10.61939462 -19.0234375 8.9296875 C-19.62091797 8.60033203 -20.21839844 8.27097656 -20.83398438 7.93164062 C-22.29627748 7.12445483 -23.7540774 6.30913833 -25.2109375 5.4921875 C-22.08663695 3.01816003 -18.85192987 1.05398877 -15.3359375 -0.8203125 C-14.32789062 -1.37332031 -13.31984375 -1.92632812 -12.28125 -2.49609375 C-7.38141449 -4.11067059 -4.48389255 -2.10557485 0 0 Z " fill="#6565F7" transform="translate(98.2109375,74.5078125)"/>
<path d="M0 0 C0.33 0 0.66 0 1 0 C1 1.65 1 3.3 1 5 C1.99 5.33 2.98 5.66 4 6 C4 7.32 4 8.64 4 10 C3.34 10 2.68 10 2 10 C2 11.98 2 13.96 2 16 C3.11375 16.474375 4.2275 16.94875 5.375 17.4375 C7.26710994 18.25306463 9.15712709 19.07856355 11 20 C10.67 23.63 10.34 27.26 10 31 C9.34 30.67 8.68 30.34 8 30 C7.375 26.9375 7.375 26.9375 7 24 C6.34 24 5.68 24 5 24 C5 23.01 5 22.02 5 21 C3.68 21 2.36 21 1 21 C1 22.98 1 24.96 1 27 C0.34 26.34 -0.32 25.68 -1 25 C-1 23.68 -1 22.36 -1 21 C-1.639375 21.185625 -2.27875 21.37125 -2.9375 21.5625 C-3.618125 21.706875 -4.29875 21.85125 -5 22 C-6 21 -6 21 -6.25 18.0625 C-6.15579828 11.54912408 -4.26382061 4.97255218 0 0 Z " fill="#6C40A7" transform="translate(45,54)"/>
<path d="M0 0 C2.45873768 0.14058476 4.91685175 0.28722999 7.375 0.4375 C8.07367188 0.47681641 8.77234375 0.51613281 9.4921875 0.55664062 C14.7734375 0.88671875 14.7734375 0.88671875 17 2 C17.103125 2.804375 17.20625 3.60875 17.3125 4.4375 C17.6528125 5.7059375 17.6528125 5.7059375 18 7 C20.47636012 8.37466625 20.47636012 8.37466625 23 9 C23.3125 11.3125 23.3125 11.3125 23 14 C20.75 15.9375 20.75 15.9375 18 17 C15.75 16.5625 15.75 16.5625 14 15 C13.25 11.875 13.25 11.875 13 9 C12.01 8.67 11.02 8.34 10 8 C9.01 7.34 8.02 6.68 7 6 C7 5.34 7 4.68 7 4 C4.69 3.01 2.38 2.02 0 1 C0 0.67 0 0.34 0 0 Z " fill="#4140C5" transform="translate(95,130)"/>
<path d="M0 0 C0 6.93 0 13.86 0 21 C-3.63 22.65 -7.26 24.3 -11 26 C-11.33 25.01 -11.66 24.02 -12 23 C-10.35 23 -8.7 23 -7 23 C-7 22.34 -7 21.68 -7 21 C-5.68 21 -4.36 21 -3 21 C-3 15.06 -3 9.12 -3 3 C-3.99 4.485 -3.99 4.485 -5 6 C-6.65 5.67 -8.3 5.34 -10 5 C-10 5.66 -10 6.32 -10 7 C-11.2065625 7.4640625 -11.2065625 7.4640625 -12.4375 7.9375 C-14.89080405 8.76335345 -14.89080405 8.76335345 -16 10 C-16.07319621 12.69654854 -16.09242537 15.36691458 -16.0625 18.0625 C-16.05798828 18.82111328 -16.05347656 19.57972656 -16.04882812 20.36132812 C-16.0370068 22.24091871 -16.01907078 24.12046899 -16 26 C-14.68 26.33 -13.36 26.66 -12 27 C-13.98 27.66 -15.96 28.32 -18 29 C-18 22.07 -18 15.14 -18 8 C-15.586875 6.68 -13.17375 5.36 -10.6875 4 C-9.55380981 3.37351562 -9.55380981 3.37351562 -8.3972168 2.734375 C-3.33333333 0 -3.33333333 0 0 0 Z " fill="#706FD6" transform="translate(109,82)"/>
<path d="M0 0 C0.33 0.99 0.66 1.98 1 3 C2.175625 2.9071875 2.175625 2.9071875 3.375 2.8125 C4.674375 2.9053125 4.674375 2.9053125 6 3 C6.99 4.485 6.99 4.485 8 6 C9.95385067 6.78988145 9.95385067 6.78988145 12.125 7.1875 C14.043125 7.5896875 14.043125 7.5896875 16 8 C14.72431911 10.84574968 13.58503711 13.18089981 11 15 C8.6875 15.125 8.6875 15.125 6 14 C3.73621609 11.85901569 1.73902422 9.58762023 0 7 C0 6.34 0 5.68 0 5 C-0.66 5 -1.32 5 -2 5 C-1.125 1.125 -1.125 1.125 0 0 Z " fill="#903C90" transform="translate(117,117)"/>
<path d="M0 0 C1.09699219 0.58910156 2.19398437 1.17820312 3.32421875 1.78515625 C4.77825982 2.54500997 6.23270856 3.30408392 7.6875 4.0625 C8.40873047 4.45244141 9.12996094 4.84238281 9.87304688 5.24414062 C14.02931745 7.41816407 14.02931745 7.41816407 18.60546875 7.9453125 C22.88415454 6.2561739 26.93928287 4.160066 31.0390625 2.08203125 C32.01617187 1.72496094 32.99328125 1.36789063 34 1 C34.99 1.66 35.98 2.32 37 3 C34.51152749 4.38013585 32.01286113 5.72809945 29.5 7.0625 C28.80390625 7.45244141 28.1078125 7.84238281 27.390625 8.24414062 C22.26755615 10.92426461 18.59254632 11.67119922 13 10 C10.39161408 8.98573715 7.95900351 7.76905883 5.5 6.4375 C3.355 5.303125 1.21 4.16875 -1 3 C-1 9.93 -1 16.86 -1 24 C-1.33 24 -1.66 24 -2 24 C-2 16.74 -2 9.48 -2 2 C-1.34 2 -0.68 2 0 2 C0 1.34 0 0.68 0 0 Z " fill="#DAE0FB" transform="translate(72,79)"/>
<path d="M0 0 C2.4375 1.125 2.4375 1.125 5 3 C5.91066788 5.87210638 6.06062404 8.30104051 5.80078125 11.296875 C5.44175353 16.43496055 5.77243684 19.37426881 9 23.5 C10.32138293 25.01053796 11.65562916 26.50988429 13 28 C14.48896054 29.84631107 15.96828068 31.70044129 17.4375 33.5625 C18.62438266 35.04216207 19.81165426 36.5215127 21 38 C20.67 38.66 20.34 39.32 20 40 C15.62334393 36.59463391 12.99333484 34.23250397 11 29 C9.88058877 27.72628397 8.73080263 26.47902522 7.5625 25.25 C3.8340961 21.16503357 2.35594599 17.28818937 1 12 C0.67 11.01 0.34 10.02 0 9 C-0.06740865 7.43881572 -0.08514456 5.8749748 -0.0625 4.3125 C-0.05347656 3.50425781 -0.04445312 2.69601563 -0.03515625 1.86328125 C-0.02355469 1.24839844 -0.01195312 0.63351563 0 0 Z " fill="#2148C9" transform="translate(46,83)"/>
<path d="M0 0 C3.8329232 1.46552946 7.29248755 3.14624378 11 5 C11 12.26 11 19.52 11 27 C5.39 24.36 -0.22 21.72 -6 19 C-6 18.67 -6 18.34 -6 18 C-4.02 18 -2.04 18 0 18 C0 18.66 0 19.32 0 20 C1.66611905 20.042721 3.33382885 20.04063832 5 20 C5.33 19.67 5.66 19.34 6 19 C6.99 19 7.98 19 9 19 C9 14.71 9 10.42 9 6 C6.525 5.01 6.525 5.01 4 4 C2.65949948 3.34786461 1.32338632 2.68620031 0 2 C0 1.34 0 0.68 0 0 Z " fill="#7375D7" transform="translate(78,85)"/>
<path d="M0 0 C0.8971875 0.309375 0.8971875 0.309375 1.8125 0.625 C1.8125 3.265 1.8125 5.905 1.8125 8.625 C3.1325 8.295 4.4525 7.965 5.8125 7.625 C6.1425 9.605 6.4725 11.585 6.8125 13.625 C5.4925 14.615 4.1725 15.605 2.8125 16.625 C2.73 15.84125 2.6475 15.0575 2.5625 14.25 C2.315 13.38375 2.0675 12.5175 1.8125 11.625 C1.1525 11.295 0.4925 10.965 -0.1875 10.625 C-0.8475 10.295 -1.5075 9.965 -2.1875 9.625 C-2.5175 7.975 -2.8475 6.325 -3.1875 4.625 C-9.7875 3.965 -16.3875 3.305 -23.1875 2.625 C-23.1875 2.295 -23.1875 1.965 -23.1875 1.625 C-21.29064453 1.65980469 -21.29064453 1.65980469 -19.35546875 1.6953125 C-17.6953184 1.71407126 -16.03516167 1.73227135 -14.375 1.75 C-13.54162109 1.76675781 -12.70824219 1.78351563 -11.84960938 1.80078125 C-10.64594727 1.81044922 -10.64594727 1.81044922 -9.41796875 1.8203125 C-8.31038208 1.83602295 -8.31038208 1.83602295 -7.18041992 1.85205078 C-4.14128963 1.50580661 -3.14065287 -0.53839764 0 0 Z " fill="#4B40B6" transform="translate(115.1875,127.375)"/>
<path d="M0 0 C0.66 0 1.32 0 2 0 C2 0.99 2 1.98 2 3 C2.66 3.33 3.32 3.66 4 4 C3.01 5.485 3.01 5.485 2 7 C1.01 6.67 0.02 6.34 -1 6 C-1.185625 7.2684375 -1.185625 7.2684375 -1.375 8.5625 C-2 12 -2 12 -3.0625 15.4375 C-4.56346584 21.14117018 -4.59138606 25.65526625 -2 31 C-1.01 31 -0.02 31 1 31 C1.4021875 32.36125 1.4021875 32.36125 1.8125 33.75 C2.89576294 36.71471963 3.98359457 38.6169754 6 41 C5.67 41.66 5.34 42.32 5 43 C3.36763346 40.94297722 1.74412995 38.87990147 0.125 36.8125 C-0.33519531 36.23435547 -0.79539062 35.65621094 -1.26953125 35.06054688 C-6.31378882 28.59073826 -7.33853087 24.27514194 -6.48046875 16.078125 C-5.58779018 10.35917612 -4.22187738 4.22187738 0 0 Z " fill="#284ECF" transform="translate(39,80)"/>
<path d="M0 0 C1.485 0.5878125 1.485 0.5878125 3 1.1875 C3.66 1.455625 4.32 1.72375 5 2 C5 2.66 5 3.32 5 4 C7.31 4.33 9.62 4.66 12 5 C12.495 6.485 12.495 6.485 13 8 C14.98 8.33 16.96 8.66 19 9 C19.495 10.485 19.495 10.485 20 12 C16.37891282 11.39944124 13.39857222 10.40727517 10.09375 8.8203125 C9.18496094 8.38589844 8.27617188 7.95148437 7.33984375 7.50390625 C6.40269531 7.04886719 5.46554688 6.59382813 4.5 6.125 C3.56285156 5.67769531 2.62570313 5.23039062 1.66015625 4.76953125 C-5.49210604 1.33035832 -5.49210604 1.33035832 -8.61914062 -0.70361328 C-11.01883397 -2.36583119 -11.01883397 -2.36583119 -14 -1.1875 C-14.99 -0.795625 -15.98 -0.40375 -17 0 C-19.875 0.125 -19.875 0.125 -22 0 C-21 -2 -21 -2 -17.8125 -3.1875 C-11.17129104 -4.60283961 -6.08983473 -2.45093964 0 0 Z " fill="#B42842" transform="translate(102,55)"/>
<path d="M0 0 C0.66 0 1.32 0 2 0 C2.2475 1.216875 2.495 2.43375 2.75 3.6875 C3.64121688 7.7460632 4.80374101 11.66563083 6.0625 15.625 C7.47884456 20.11623388 8.56424305 24.31561283 9 29 C9.33 29 9.66 29 10 29 C10.625 31.875 10.625 31.875 11 35 C9 37 9 37 6 38 C6.061875 36.95328125 6.12375 35.9065625 6.1875 34.828125 C6.1875 28.61974691 4.48432579 22.74079238 3 16.75 C2.43356971 14.43324907 1.87090228 12.115574 1.3125 9.796875 C1.06113281 8.77948242 0.80976562 7.76208984 0.55078125 6.71386719 C0 4 0 4 0 0 Z " fill="#B52C44" transform="translate(122,67)"/>
<path d="M0 0 C0.66 0.33 1.32 0.66 2 1 C0.625 3 0.625 3 -1 5 C-1.66 5 -2.32 5 -3 5 C-2.505 6.485 -2.505 6.485 -2 8 C-3.98 8.33 -5.96 8.66 -8 9 C-8 8.34 -8 7.68 -8 7 C-29.78 6.505 -29.78 6.505 -52 6 C-52 5.67 -52 5.34 -52 5 C-51.45178085 4.99635437 -50.90356171 4.99270874 -50.33872986 4.98895264 C-44.6115441 4.94700853 -38.88515088 4.87758047 -33.15844727 4.79248047 C-31.02376244 4.76432651 -28.88897444 4.74308435 -26.75415039 4.72900391 C-23.67801306 4.70749747 -20.60310886 4.66080663 -17.52734375 4.609375 C-16.10505714 4.60753204 -16.10505714 4.60753204 -14.65403748 4.60565186 C-8.53033579 4.47154445 -5.13996232 3.2904556 0 0 Z " fill="#CADEFA" transform="translate(120,142)"/>
<path d="M0 0 C0.66 0 1.32 0 2 0 C1.95359375 0.556875 1.9071875 1.11375 1.859375 1.6875 C1.53036105 8.64379492 3.02460005 13.58432607 7.63671875 18.87890625 C8.18972656 19.47574219 8.74273437 20.07257813 9.3125 20.6875 C12.01528025 23.64091401 12.01528025 23.64091401 11.875 26.9375 C11.441875 27.9584375 11.441875 27.9584375 11 29 C7.125 27.25 7.125 27.25 6 25 C6.4375 22.875 6.4375 22.875 7 21 C5.35 21.33 3.7 21.66 2 22 C0.57374434 14.58856436 -0.30071865 7.55137932 0 0 Z " fill="#DDEDFA" transform="translate(31,96)"/>
<path d="M0 0 C3.31510401 1.306916 6.45251981 2.78476012 9.625 4.40625 C10.68460938 4.94507812 11.74421875 5.48390625 12.8359375 6.0390625 C13.63257812 6.44898437 14.42921875 6.85890625 15.25 7.28125 C13.61442687 10.55239627 10.18557012 11.47195199 7 12.96875 C6.33097656 13.30197266 5.66195312 13.63519531 4.97265625 13.97851562 C1.01643902 15.84780884 -1.54155541 16.75746797 -5.75 15.28125 C-5.75 14.95125 -5.75 14.62125 -5.75 14.28125 C-1.76939223 13.11048301 2.16621717 12.02375597 6.25 11.28125 C6.25 10.62125 6.25 9.96125 6.25 9.28125 C7.24 8.95125 8.23 8.62125 9.25 8.28125 C9.25 7.62125 9.25 6.96125 9.25 6.28125 C7.6 5.95125 5.95 5.62125 4.25 5.28125 C4.25 4.62125 4.25 3.96125 4.25 3.28125 C2.6 3.28125 0.95 3.28125 -0.75 3.28125 C-0.75 2.62125 -0.75 1.96125 -0.75 1.28125 C-2.73 1.61125 -4.71 1.94125 -6.75 2.28125 C-4.27425464 -0.19449536 -3.49162971 -0.91258504 0 0 Z " fill="#7374D1" transform="translate(91.75,71.71875)"/>
<path d="M0 0 C0.763125 0.495 1.52625 0.99 2.3125 1.5 C2.3125 1.83 2.3125 2.16 2.3125 2.5 C0.95125 2.438125 0.95125 2.438125 -0.4375 2.375 C-3.58022147 2.25351077 -3.58022147 2.25351077 -5.625 3.5625 C-8.81893714 5.01428961 -11.35125875 4.25537538 -14.6875 3.5 C-15.0175 2.84 -15.3475 2.18 -15.6875 1.5 C-16.0175 1.83 -16.3475 2.16 -16.6875 2.5 C-18.35367115 2.54063832 -20.02138095 2.542721 -21.6875 2.5 C-14.70628737 -2.15414175 -7.98335136 -3.24746496 0 0 Z " fill="#B9172E" transform="translate(99.6875,35.5)"/>
<path d="M0 0 C0 0.99 0 1.98 0 3 C-0.33 3.33 -0.66 3.66 -1 4 C-1.07179964 5.51928038 -1.08392007 7.04167482 -1.0625 8.5625 C-1.05347656 9.38878906 -1.04445312 10.21507813 -1.03515625 11.06640625 C-1.02355469 11.70449219 -1.01195312 12.34257813 -1 13 C-3.31 13.66 -5.62 14.32 -8 15 C-9.34479164 11.30182298 -9.02293598 10.05116488 -7.375 6.375 C-5.42327685 3.24268907 -3.37516864 1.59382963 0 0 Z " fill="#BE3E6D" transform="translate(130,103)"/>
<path d="M0 0 C6.14247042 1.9557048 11.81393323 4.60782535 17.625 7.375 C18.66140625 7.85710938 19.6978125 8.33921875 20.765625 8.8359375 C22.26222656 9.5475 22.26222656 9.5475 23.7890625 10.2734375 C25.14572021 10.91418213 25.14572021 10.91418213 26.52978516 11.56787109 C29.14299449 13.08290232 30.96810079 14.7796657 33 17 C32.01 17.495 32.01 17.495 31 18 C31 17.34 31 16.68 31 16 C30.195625 15.7525 29.39125 15.505 28.5625 15.25 C23.22049332 13.37561169 18.10337186 11.07406222 13.0625 8.5 C8.80693062 6.41563949 4.41371089 4.71838151 0 3 C0 2.01 0 1.02 0 0 Z " fill="#A41A2A" transform="translate(102,38)"/>
<path d="M0 0 C0.33 0.99 0.66 1.98 1 3 C0.67 3.33 0.34 3.66 0 4 C0.495 4.433125 0.99 4.86625 1.5 5.3125 C3.49733892 7.55950629 3 9.1152731 3 12 C-1.8274799 10.58707905 -5.7162359 8.57025846 -10 6 C-6.87567603 3.47650757 -3.61939504 1.72743854 0 0 Z " fill="#6969E9" transform="translate(83,74)"/>
<path d="M0 0 C0.66 0.33 1.32 0.66 2 1 C3.97787936 7.26328464 5.49554212 15.2611447 3 21.5 C2.67 21.995 2.34 22.49 2 23 C2 21.68 2 20.36 2 19 C1.01 18.67 0.02 18.34 -1 18 C-0.814375 17.21625 -0.62875 16.4325 -0.4375 15.625 C0.25962266 13.02910225 0.25962266 13.02910225 -1 11 C-1.23188406 3.69565217 -1.23188406 3.69565217 0 0 Z " fill="#B71429" transform="translate(138,61)"/>
<path d="M0 0 C1.98 0 3.96 0 6 0 C6.33 0.99 6.66 1.98 7 3 C7.99 3.66 8.98 4.32 10 5 C9.67 6.65 9.34 8.3 9 10 C7.68 10.33 6.36 10.66 5 11 C2.37613513 7.93882432 2 7.26826873 2 3 C1.01 2.67 0.02 2.34 -1 2 C-0.67 1.34 -0.34 0.68 0 0 Z " fill="#2743DE" transform="translate(106,136)"/>
<path d="M0 0 C0.66 0.99 1.32 1.98 2 3 C3.32 3 4.64 3 6 3 C6.99 5.64 7.98 8.28 9 11 C8.01 11.99 7.02 12.98 6 14 C4.5 12.6875 4.5 12.6875 3 11 C3 10.01 3 9.02 3 8 C0.48916886 9.25541557 0.12874554 10.50063488 -1 13 C-2.12758089 9.61725734 -1.81750262 8.23221777 -1.0625 4.8125 C-0.86785156 3.91144531 -0.67320313 3.01039062 -0.47265625 2.08203125 C-0.23869141 1.05142578 -0.23869141 1.05142578 0 0 Z " fill="#4746C2" transform="translate(38,72)"/>
<path d="M0 0 C3.63 0.33 7.26 0.66 11 1 C11 2.32 11 3.64 11 5 C11.5775 5.144375 12.155 5.28875 12.75 5.4375 C14.83333333 5.95833333 16.91666667 6.47916667 19 7 C19 8.32 19 9.64 19 11 C18.34 11 17.68 11 17 11 C17 10.34 17 9.68 17 9 C16.29875 8.87625 15.5975 8.7525 14.875 8.625 C10.04316487 7.57460106 6.38282452 6.70499828 3 3 C2.01 2.67 1.02 2.34 0 2 C0 1.34 0 0.68 0 0 Z " fill="#CD0722" transform="translate(109,57)"/>
<path d="M0 0 C0.33 0 0.66 0 1 0 C1 1.65 1 3.3 1 5 C1.99 5.33 2.98 5.66 4 6 C4 7.32 4 8.64 4 10 C3.34 10 2.68 10 2 10 C1.67 10.99 1.34 11.98 1 13 C0.34 13 -0.32 13 -1 13 C-2.6875 11.3125 -2.6875 11.3125 -4 9 C-3.80829396 5.16587914 -2.52849331 2.84455497 0 0 Z " fill="#964587" transform="translate(45,54)"/>
<path d="M0 0 C0.99 0.33 1.98 0.66 3 1 C2.34 2.32 1.68 3.64 1 5 C1.66 5 2.32 5 3 5 C3 5.66 3 6.32 3 7 C-2.28 7 -7.56 7 -13 7 C-13.33 6.34 -13.66 5.68 -14 5 C-6.00260417 1.7578125 -6.00260417 1.7578125 -2 3 C-1.34 2.01 -0.68 1.02 0 0 Z " fill="#CC1C3F" transform="translate(77,41)"/>
<path d="M0 0 C0.598125 0.20625 1.19625 0.4125 1.8125 0.625 C1.8125 3.265 1.8125 5.905 1.8125 8.625 C3.1325 8.295 4.4525 7.965 5.8125 7.625 C6.1425 9.605 6.4725 11.585 6.8125 13.625 C5.4925 14.615 4.1725 15.605 2.8125 16.625 C2.8125 14.975 2.8125 13.325 2.8125 11.625 C3.4725 11.625 4.1325 11.625 4.8125 11.625 C4.8125 10.965 4.8125 10.305 4.8125 9.625 C3.4925 9.625 2.1725 9.625 0.8125 9.625 C0.8125 7.975 0.8125 6.325 0.8125 4.625 C-0.1775 4.625 -1.1675 4.625 -2.1875 4.625 C-2.1875 3.965 -2.1875 3.305 -2.1875 2.625 C-3.1775 2.295 -4.1675 1.965 -5.1875 1.625 C-2.1875 -0.375 -2.1875 -0.375 0 0 Z " fill="#5D44B1" transform="translate(115.1875,127.375)"/>
<path d="M0 0 C2.31 0 4.62 0 7 0 C4.37801226 2.15377564 2.35595828 3.40072174 -1 4 C-1.33 6.64 -1.66 9.28 -2 12 C-2.99 12.33 -3.98 12.66 -5 13 C-5.25 6.375 -5.25 6.375 -3 3 C-2.34 3 -1.68 3 -1 3 C-0.67 2.01 -0.34 1.02 0 0 Z " fill="#A44576" transform="translate(59,63)"/>
<path d="M0 0 C2.90802461 2.21928194 4.95312762 3.92969143 7 7 C6.01 7.66 5.02 8.32 4 9 C1.3125 8.125 1.3125 8.125 -1 7 C-1.04254356 5.00045254 -1.04080783 2.99958364 -1 1 C-0.67 0.67 -0.34 0.34 0 0 Z " fill="#773CA2" transform="translate(119,126)"/>
<path d="M0 0 C0.61230469 0.80824219 1.22460938 1.61648437 1.85546875 2.44921875 C5.65290432 6.24665432 10.22361255 5.78013252 15.3125 5.8125 C16.24384766 5.83763672 17.17519531 5.86277344 18.13476562 5.88867188 C20.42360186 5.94735998 22.71053426 5.98377168 25 6 C25 6.33 25 6.66 25 7 C21.20847666 7.0867982 17.41720704 7.14032207 13.625 7.1875 C12.54476562 7.21263672 11.46453125 7.23777344 10.3515625 7.26367188 C8.8046875 7.27817383 8.8046875 7.27817383 7.2265625 7.29296875 C6.27346191 7.3086792 5.32036133 7.32438965 4.33837891 7.34057617 C3.56671387 7.22818604 2.79504883 7.1157959 2 7 C0 4 0 4 0 0 Z " fill="#1347C3" transform="translate(67,123)"/>
<path d="M0 0 C2.97 0.99 5.94 1.98 9 3 C8.01 3.495 8.01 3.495 7 4 C9.0214155 8.57478244 11.31993178 11.61831569 15 15 C10.15895735 13.6131067 7.70640583 10.76144738 4.6875 6.9375 C4.23310547 6.38255859 3.77871094 5.82761719 3.31054688 5.25585938 C0 1.16870301 0 1.16870301 0 0 Z " fill="#1C48CD" transform="translate(51,131)"/>
<path d="M0 0 C7.15291751 2.06639839 7.15291751 2.06639839 9 5 C8.6875 7.6875 8.6875 7.6875 8 10 C4.125 8.25 4.125 8.25 3 6 C3.4375 3.875 3.4375 3.875 4 2 C2.35 2.33 0.7 2.66 -1 3 C-0.67 2.01 -0.34 1.02 0 0 Z " fill="#ECF6F7" transform="translate(34,115)"/>
<path d="M0 0 C5.91969002 1.75990784 11.41634992 4.39694605 17 7 C17 7.33 17 7.66 17 8 C9.57142857 8.28571429 9.57142857 8.28571429 6 6 C6 5.34 6 4.68 6 4 C4.02 3.34 2.04 2.68 0 2 C0 1.34 0 0.68 0 0 Z " fill="#EDF0FB" transform="translate(70,103)"/>
<path d="M0 0 C2.4375 1.125 2.4375 1.125 5 3 C5.8125 6.1875 5.8125 6.1875 6 9 C5.34 9 4.68 9 4 9 C4 8.34 4 7.68 4 7 C3.34 7 2.68 7 2 7 C2 8.65 2 10.3 2 12 C-0.13586678 8.79619983 -0.23132175 7.98060033 -0.125 4.3125 C-0.10695312 3.50425781 -0.08890625 2.69601563 -0.0703125 1.86328125 C-0.04710937 1.24839844 -0.02390625 0.63351563 0 0 Z " fill="#3341D1" transform="translate(46,83)"/>
<path d="M0 0 C-0.33 1.98 -0.66 3.96 -1 6 C-4.09718886 6.99552499 -5.90271275 6.89921243 -9 6 C-9.99 6 -10.98 6 -12 6 C-10.70903219 5.18639005 -9.41720125 4.37414954 -8.125 3.5625 C-7.04605469 2.88380859 -7.04605469 2.88380859 -5.9453125 2.19140625 C-2.36721311 0 -2.36721311 0 0 0 Z " fill="#B92D4A" transform="translate(78,38)"/>
<path d="M0 0 C0.804375 0.4640625 0.804375 0.4640625 1.625 0.9375 C4.02037962 2.14663926 4.02037962 2.14663926 6.9375 2.375 C10.58372646 3.11912785 12.35115903 4.42906612 15 7 C15 7.66 15 8.32 15 9 C9.31497465 7.35433477 4.23318364 4.70967216 -1 2 C-0.67 1.34 -0.34 0.68 0 0 Z " fill="#FAE1DF" transform="translate(97,33)"/>
<path d="M0 0 C2.0245738 1.93254772 3.42105792 3.63158688 5 6 C5.66 6 6.32 6 7 6 C7.268125 6.9075 7.53625 7.815 7.8125 8.75 C8.89576294 11.71471963 9.98359457 13.6169754 12 16 C11.67 16.66 11.34 17.32 11 18 C9.34280239 15.94579679 7.69947241 13.88272295 6.0625 11.8125 C5.35963867 10.9452832 5.35963867 10.9452832 4.64257812 10.06054688 C2.05229789 6.76213248 0.38183889 4.31396701 0 0 Z " fill="#1B47CD" transform="translate(33,105)"/>
<path d="M0 0 C0.91007812 0.00902344 1.82015625 0.01804688 2.7578125 0.02734375 C3.80582031 0.04474609 3.80582031 0.04474609 4.875 0.0625 C4.875 0.3925 4.875 0.7225 4.875 1.0625 C3.6375 1.289375 2.4 1.51625 1.125 1.75 C-4.93425829 3.07395277 -10.47391308 5.55728042 -16.125 8.0625 C-15.3515625 6.109375 -15.3515625 6.109375 -14.125 4.0625 C-10.5 3.3125 -10.5 3.3125 -7.125 3.0625 C-7.125 2.4025 -7.125 1.7425 -7.125 1.0625 C-4.60024538 -0.19987731 -2.81299534 -0.03606404 0 0 Z " fill="#F8DEDE" transform="translate(87.125,32.9375)"/>
<path d="M0 0 C-0.639375 0.103125 -1.27875 0.20625 -1.9375 0.3125 C-2.618125 0.539375 -3.29875 0.76625 -4 1 C-4.33 1.99 -4.66 2.98 -5 4 C-7.64 4.33 -10.28 4.66 -13 5 C-9.20294912 -1.73113566 -7.21059951 -1.04669993 0 0 Z " fill="#C9315B" transform="translate(75,57)"/>
<path d="M0 0 C0.66 0.33 1.32 0.66 2 1 C1.34 1.66 0.68 2.32 0 3 C-0.14507695 5.74485593 -0.18652423 8.38480543 -0.125 11.125 C-0.11597656 11.87910156 -0.10695313 12.63320312 -0.09765625 13.41015625 C-0.0740687 15.27357254 -0.03819719 17.13682593 0 19 C1.32 19.33 2.64 19.66 4 20 C2.02 20.66 0.04 21.32 -2 22 C-2 15.07 -2 8.14 -2 1 C-1.34 0.67 -0.68 0.34 0 0 Z " fill="#6B69C0" transform="translate(93,89)"/>
<path d="M0 0 C3.95820859 0.56545837 6.6659053 1.80902348 10 4 C9.67 4.66 9.34 5.32 9 6 C7.68 6 6.36 6 5 6 C5 5.01 5 4.02 5 3 C4.401875 3.33 3.80375 3.66 3.1875 4 C1 5 1 5 -2 5 C-1 2 -1 2 0 0 Z " fill="#C7031A" transform="translate(122,50)"/>
<path d="M0 0 C2.96404505 2.80804268 5.44499019 5.18315774 7 9 C4 10 4 10 1 9 C0.67 6.03 0.34 3.06 0 0 Z " fill="#DFEDF8" transform="translate(53,134)"/>
<path d="M0 0 C2.37287264 4.58755377 3.1181816 8.00911138 3.0625 13.1875 C3.05347656 14.27417969 3.04445312 15.36085938 3.03515625 16.48046875 C3.02355469 17.31191406 3.01195312 18.14335938 3 19 C0.51955685 15.27933528 0.55618827 12.13459526 0.375 7.8125 C0.33632812 7.06291016 0.29765625 6.31332031 0.2578125 5.54101562 C0.16371784 3.69440801 0.08077681 1.8472381 0 0 Z " fill="#AF2D43" transform="translate(144,86)"/>
<path d="M0 0 C1 2 1 2 0.0625 5.125 C-0.288125 6.07375 -0.63875 7.0225 -1 8 C0.65 8 2.3 8 4 8 C4.33 9.65 4.66 11.3 5 13 C4.01 12.34 3.02 11.68 2 11 C2 10.34 2 9.68 2 9 C0.35 9 -1.3 9 -3 9 C-3.75 7.3125 -3.75 7.3125 -4 5 C-2.0625 2.25 -2.0625 2.25 0 0 Z " fill="#A5447E" transform="translate(121,111)"/>
<path d="M0 0 C1.98 0.66 3.96 1.32 6 2 C6 2.33 6 2.66 6 3 C4.35 3 2.7 3 1 3 C1 8.94 1 14.88 1 21 C0.67 21 0.34 21 0 21 C0 14.07 0 7.14 0 0 Z " fill="#6868C2" transform="translate(71,82)"/>
<path d="M0 0 C2.31 0 4.62 0 7 0 C7 0.66 7 1.32 7 2 C8.32 2.33 9.64 2.66 11 3 C11 3.99 11 4.98 11 6 C9.68 6 8.36 6 7 6 C7 5.34 7 4.68 7 4 C4.69 3.01 2.38 2.02 0 1 C0 0.67 0 0.34 0 0 Z " fill="#3141D1" transform="translate(95,130)"/>
<path d="M0 0 C0.33 0.99 0.66 1.98 1 3 C-0.98 3.33 -2.96 3.66 -5 4 C-4.67 5.65 -4.34 7.3 -4 9 C-5.98 8.01 -7.96 7.02 -10 6 C-6.87567603 3.47650757 -3.61939504 1.72743854 0 0 Z " fill="#6F6FD0" transform="translate(83,74)"/>
<path d="M0 0 C0.66 0.33 1.32 0.66 2 1 C-0.24887569 4.37331354 -1.2387963 4.8358179 -5 6 C-6.32 6 -7.64 6 -9 6 C-9.33 6.99 -9.66 7.98 -10 9 C-10.33 8.01 -10.66 7.02 -11 6 C-9.21385682 4.96953278 -7.42089982 3.95086764 -5.625 2.9375 C-4.62726562 2.36902344 -3.62953125 1.80054688 -2.6015625 1.21484375 C-1.74304687 0.81394531 -0.88453125 0.41304687 0 0 Z " fill="#B65273" transform="translate(57,47)"/>
<path d="M0 0 C3.48670834 1.1094072 6.77484237 2.26337666 10 4 C10 4.66 10 5.32 10 6 C6.28111761 5.49287967 3.26545761 4.88391785 0 3 C0 2.01 0 1.02 0 0 Z " fill="#B3172B" transform="translate(102,38)"/>
<path d="M0 0 C0.99 0.33 1.98 0.66 3 1 C3.625 3.875 3.625 3.875 4 7 C2 9 2 9 -1 10 C-1.02689216 8.52093108 -1.04634621 7.04172517 -1.0625 5.5625 C-1.07410156 4.73878906 -1.08570312 3.91507812 -1.09765625 3.06640625 C-1 1 -1 1 0 0 Z " fill="#B7314E" transform="translate(129,95)"/>
<path d="M0 0 C2.97 0.495 2.97 0.495 6 1 C4.70700306 3.88437779 3.34058637 5.87219421 1 8 C0.67 5.36 0.34 2.72 0 0 Z " fill="#98447F" transform="translate(127,124)"/>
<path d="M0 0 C0.33 0.66 0.66 1.32 1 2 C1.66 2 2.32 2 3 2 C3.33 4.31 3.66 6.62 4 9 C3.67 7.68 3.34 6.36 3 5 C1.68 5.33 0.36 5.66 -1 6 C-1.33 4.35 -1.66 2.7 -2 1 C-1.34 0.67 -0.68 0.34 0 0 Z " fill="#563FAF" transform="translate(41,70)"/>
<path d="M0 0 C3.91211733 1.15585285 6.8745041 2.35534962 10 5 C7.03 5 4.06 5 1 5 C0.67 3.35 0.34 1.7 0 0 Z " fill="#FBE8ED" transform="translate(97,56)"/>
<path d="M0 0 C0.8971875 0.5259375 0.8971875 0.5259375 1.8125 1.0625 C-0.88933055 2.41341528 -3.30558206 2.40108058 -6.3125 2.625 C-7.40820312 2.70878906 -8.50390625 2.79257812 -9.6328125 2.87890625 C-10.47585937 2.93949219 -11.31890625 3.00007813 -12.1875 3.0625 C-12.1875 2.0725 -12.1875 1.0825 -12.1875 0.0625 C-11.094375 0.083125 -10.00125 0.10375 -8.875 0.125 C-0.05706522 -0.02445652 -0.05706522 -0.02445652 0 0 Z " fill="#CA1D3D" transform="translate(92.1875,49.9375)"/>
<path d="M0 0 C-0.33 1.32 -0.66 2.64 -1 4 C-3.31 4 -5.62 4 -8 4 C-8 3.01 -8 2.02 -8 1 C-2.25 -1.125 -2.25 -1.125 0 0 Z " fill="#C5396A" transform="translate(56,52)"/>
<path d="M0 0 C0 3.61029169 -0.96092582 6.55806676 -2 10 C-3.32 9.01 -4.64 8.02 -6 7 C-4.6875 4.0625 -4.6875 4.0625 -3 1 C-2.01 0.67 -1.02 0.34 0 0 Z " fill="#C1375F" transform="translate(130,103)"/>
<path d="M0 0 C-0.33 1.32 -0.66 2.64 -1 4 C-7.75 0.25 -7.75 0.25 -10 -2 C-5.82412255 -3.39195915 -3.86525224 -1.82323219 0 0 Z " fill="#F8DBDA" transform="translate(136,51)"/>
<path d="M0 0 C0.86625 0.556875 0.86625 0.556875 1.75 1.125 C0.76 2.61 0.76 2.61 -0.25 4.125 C-3.22 3.63 -3.22 3.63 -6.25 3.125 C-6.25 2.465 -6.25 1.805 -6.25 1.125 C-2.80384615 -1.09038462 -2.80384615 -1.09038462 0 0 Z " fill="#B93E6F" transform="translate(135.25,119.875)"/>
<path d="M0 0 C1.258125 0.12375 2.51625 0.2475 3.8125 0.375 C4.87404297 0.47941406 4.87404297 0.47941406 5.95703125 0.5859375 C8 1 8 1 11 3 C11 3.66 11 4.32 11 5 C6.87248551 4.39301257 3.6678852 2.96189209 0 1 C0 0.67 0 0.34 0 0 Z " fill="#B3364B" transform="translate(111,62)"/>
<path d="M0 0 C0.33 0.66 0.66 1.32 1 2 C1.66 2 2.32 2 3 2 C3.33 2.99 3.66 3.98 4 5 C3.34 5.66 2.68 6.32 2 7 C1.01 6.34 0.02 5.68 -1 5 C-1.99 5 -2.98 5 -4 5 C-2.68 3.35 -1.36 1.7 0 0 Z " fill="#794595" transform="translate(114,120)"/>
<path d="M0 0 C0.66 0.33 1.32 0.66 2 1 C-0.31 3.97 -2.62 6.94 -5 10 C-5.33 9.01 -5.66 8.02 -6 7 C-4.78515625 5.17578125 -4.78515625 5.17578125 -3.0625 3.3125 C-2.49660156 2.68988281 -1.93070312 2.06726563 -1.34765625 1.42578125 C-0.90292969 0.95527344 -0.45820312 0.48476562 0 0 Z " fill="#F3E4F5" transform="translate(116,115)"/>
<path d="M0 0 C0.33 0.99 0.66 1.98 1 3 C0.01 3.495 0.01 3.495 -1 4 C-1.66 3.67 -2.32 3.34 -3 3 C-3.66 4.32 -4.32 5.64 -5 7 C-5.33 7 -5.66 7 -6 7 C-6 5.35 -6 3.7 -6 2 C-2.25 0 -2.25 0 0 0 Z " fill="#F7E0F0" transform="translate(64,65)"/>
<path d="M0 0 C0.33 0 0.66 0 1 0 C0.67 2.64 0.34 5.28 0 8 C-0.99 8.33 -1.98 8.66 -3 9 C-3 6.69 -3 4.38 -3 2 C-2.01 2 -1.02 2 0 2 C0 1.34 0 0.68 0 0 Z " fill="#854A88" transform="translate(57,67)"/>
<path d="M0 0 C0.66 0.33 1.32 0.66 2 1 C0.25244797 4.49510407 -3.76822009 4.9212823 -7.3125 6.125 C-8.6428125 6.558125 -8.6428125 6.558125 -10 7 C-10 6.34 -10 5.68 -10 5 C-8.38007835 4.13624104 -6.75388139 3.28424146 -5.125 2.4375 C-4.22007813 1.96183594 -3.31515625 1.48617187 -2.3828125 0.99609375 C-1.20332031 0.50302734 -1.20332031 0.50302734 0 0 Z " fill="#FBE1E5" transform="translate(85,54)"/>
<path d="M0 0 C0.99 0.33 1.98 0.66 3 1 C2.67 2.65 2.34 4.3 2 6 C0.68 6.33 -0.64 6.66 -2 7 C-1.34 4.69 -0.68 2.38 0 0 Z " fill="#3442CE" transform="translate(113,140)"/>
<path d="M0 0 C0.33 0.66 0.66 1.32 1 2 C2.65 2 4.3 2 6 2 C5.67 3.65 5.34 5.3 5 7 C4.34 7 3.68 7 3 7 C0.70351351 4.4385343 0 3.52032428 0 0 Z " fill="#8A4397" transform="translate(41,60)"/>
<path d="M0 0 C0.33 0.66 0.66 1.32 1 2 C0.06553465 4.03144641 -0.93224776 6.03533587 -2 8 C-3.32 7.67 -4.64 7.34 -6 7 C-4.02 4.69 -2.04 2.38 0 0 Z " fill="#FBE6EC" transform="translate(145,111)"/>
<path d="M0 0 C0 4.38968456 -2.12805101 5.76905739 -5 9 C-5.33 8.01 -5.66 7.02 -6 6 C-4.13216429 3.19824644 -2.69725519 1.88807863 0 0 Z " fill="#664595" transform="translate(127,131)"/>
<path d="M0 0 C1.32 0.33 2.64 0.66 4 1 C4.33 3.64 4.66 6.28 5 9 C4.01 9.495 4.01 9.495 3 10 C2.67 7.69 2.34 5.38 2 3 C1.34 3 0.68 3 0 3 C0 2.01 0 1.02 0 0 Z " fill="#F9D8DA" transform="translate(118,66)"/>
<path d="M0 0 C2.97 0.495 2.97 0.495 6 1 C4.35 2.65 2.7 4.3 1 6 C0 5 0 5 -0.0625 2.4375 C-0.041875 1.633125 -0.02125 0.82875 0 0 Z " fill="#C80519" transform="translate(96,37)"/>
<path d="M0 0 C1.98 0 3.96 0 6 0 C6.33 1.32 6.66 2.64 7 4 C4.69 3.67 2.38 3.34 0 3 C0 2.01 0 1.02 0 0 Z " fill="#3640D6" transform="translate(106,136)"/>
<path d="M0 0 C2.475 0.495 2.475 0.495 5 1 C5.33 3.31 5.66 5.62 6 8 C1.125 3.375 1.125 3.375 0 0 Z " fill="#1D4CCF" transform="translate(45,123)"/>
<path d="M0 0 C0.33 1.32 0.66 2.64 1 4 C1.66 4 2.32 4 3 4 C3 5.65 3 7.3 3 9 C1.68 8.67 0.36 8.34 -1 8 C-0.67 5.36 -0.34 2.72 0 0 Z " fill="#7D59AA" transform="translate(40,63)"/>
<path d="M0 0 C1.485 0.99 1.485 0.99 3 2 C3 2.66 3 3.32 3 4 C3.66 4 4.32 4 5 4 C5 4.99 5 5.98 5 7 C4.01 7.33 3.02 7.66 2 8 C2 6.68 2 5.36 2 4 C1.34 4 0.68 4 0 4 C0 2.68 0 1.36 0 0 Z " fill="#743C9C" transform="translate(41,63)"/>
<path d="M0 0 C2.31 0.66 4.62 1.32 7 2 C5 4 5 4 1.875 4.125 C0.451875 4.063125 0.451875 4.063125 -1 4 C-0.67 2.68 -0.34 1.36 0 0 Z " fill="#C3061A" transform="translate(110,44)"/>
<path d="M0 0 C0.66 0 1.32 0 2 0 C2.33 0.99 2.66 1.98 3 3 C-2.625 5.125 -2.625 5.125 -6 4 C-5.38125 3.71125 -4.7625 3.4225 -4.125 3.125 C-1.86674235 2.06279958 -1.86674235 2.06279958 0 0 Z " fill="#CC244A" transform="translate(69,43)"/>
<path d="M0 0 C0.33 0 0.66 0 1 0 C1 3.63 1 7.26 1 11 C0.01 11 -0.98 11 -2 11 C-1.34 7.37 -0.68 3.74 0 0 Z " fill="#FCECF1" transform="translate(148,100)"/>
<path d="M0 0 C0.33 0 0.66 0 1 0 C1.33 3.63 1.66 7.26 2 11 C-1 8 -1 8 -1.07421875 5.95703125 C-0.71614583 3.97135417 -0.35807292 1.98567708 0 0 Z " fill="#D9EEFC" transform="translate(52,94)"/>
<path d="M0 0 C5 2 5 2 10 4 C9.67 4.66 9.34 5.32 9 6 C5.9168649 4.80100302 2.93720508 3.52299523 0 2 C0 1.34 0 0.68 0 0 Z " fill="#7375D4" transform="translate(78,85)"/>
<path d="M0 0 C0.99 0 1.98 0 3 0 C2.34 2.97 1.68 5.94 1 9 C0.67 9 0.34 9 0 9 C0 6.03 0 3.06 0 0 Z " fill="#D7E9FA" transform="translate(33,84)"/>
<path d="M0 0 C3.375 -0.125 3.375 -0.125 7 0 C7.66 0.66 8.32 1.32 9 2 C8.67 2.66 8.34 3.32 8 4 C2.25 2.25 2.25 2.25 0 0 Z " fill="#F6D9D6" transform="translate(114,43)"/>
<path d="M0 0 C0.33 0.99 0.66 1.98 1 3 C1.99 3.33 2.98 3.66 4 4 C3.34 4 2.68 4 2 4 C1.67 4.66 1.34 5.32 1 6 C0.01 5.67 -0.98 5.34 -2 5 C-1.125 1.125 -1.125 1.125 0 0 Z " fill="#8D3F82" transform="translate(117,117)"/>
<path d="M0 0 C1.98 0 3.96 0 6 0 C3.37801226 2.15377564 1.35595828 3.40072174 -2 4 C-1.34 2.68 -0.68 1.36 0 0 Z " fill="#E4E8FC" transform="translate(75,75)"/>
</svg>
